<?xml version="1.0" encoding="utf-8"?>
<!-- Generator: Adobe Illustrator 25.2.3, SVG Export Plug-In . SVG Version: 6.00 Build 0)  -->
<svg version="1.1" id="Layer_1" xmlns="http://www.w3.org/2000/svg" xmlns:xlink="http://www.w3.org/1999/xlink" x="0px" y="0px"
	 viewBox="0 0 636.7 938.5" style="enable-background:new 0 0 636.7 938.5;" xml:space="preserve">
<style type="text/css">
	.st0{fill:#CCAEAE;stroke:#000000;stroke-width:18;stroke-miterlimit:10;}
	.st1{display:none;}
	.st2{display:inline;}
	.st3{stroke:#000000;stroke-width:3.8344;stroke-linecap:round;stroke-linejoin:round;}
	.st4{fill:#FFFFFF;stroke:#000000;stroke-width:3.8344;stroke-linecap:round;stroke-linejoin:round;}
	.st5{fill:none;stroke:#000000;stroke-width:7;stroke-miterlimit:10;}
	.st6{fill:none;stroke:#000000;stroke-width:4;stroke-miterlimit:10;}
	.st7{fill:none;stroke:#000000;stroke-width:9;stroke-miterlimit:10;}
	.st8{fill-rule:evenodd;clip-rule:evenodd;fill:url(#SVGID_1_);stroke:#000000;stroke-width:2.4178;stroke-linejoin:round;}
	.st9{fill-rule:evenodd;clip-rule:evenodd;fill:url(#SVGID_2_);stroke:#000000;stroke-width:2.4178;stroke-linejoin:round;}
	.st10{clip-path:url(#SVGID_4_);}
	.st11{clip-path:url(#SVGID_6_);}
	.st12{clip-path:url(#SVGID_8_);}
	.st13{clip-path:url(#SVGID_10_);}
	.st14{clip-path:url(#SVGID_12_);}
	.st15{clip-path:url(#SVGID_14_);}
	.st16{fill-rule:evenodd;clip-rule:evenodd;stroke:#000000;stroke-width:7;stroke-miterlimit:10;}
	.st17{fill-rule:evenodd;clip-rule:evenodd;stroke:#000000;stroke-width:6;stroke-miterlimit:10;}
	.st18{fill:#FFFFFF;stroke:#000000;stroke-width:5;stroke-miterlimit:10;}
	.st19{stroke:#000000;stroke-width:5;stroke-miterlimit:10;}
	.st20{fill:#918383;stroke:#000000;stroke-width:14;stroke-miterlimit:10;}
	.st21{fill:#918383;}
</style>
<g>
	<path class="st0" d="M557.6,237.3c-1.9-13.3-4.4-26.6-8.2-39.6c-2.8-9.5-5.8-18.8-10.7-27.6c-4.5-8-9-15.9-13.7-23.7
		c-6.5-10.8-13.7-21-22-30.6c-6.1-7-13-13.2-19.9-19.4c-8.6-7.7-17.7-15.1-27.5-21.4c-11.4-7.3-23.4-13.6-36.5-18
		c-8.7-2.9-17.4-6-26-9.1c-19.4-7.2-39.4-11.7-60.2-12.6c-12.3-0.5-24.6-0.5-36.9,0.6c-13,1.2-25.7,3.6-38.1,7.4
		c-13.9,4.2-27.5,9-41.1,14.1c-6.1,2.3-12.4,4.5-18.2,7.4c-15.3,7.8-29.1,17.5-41.8,28.8c-5.1,4.5-10,9.2-14.9,13.9
		c-3.4,3.3-6.8,6.7-9.8,10.4c-12,14.7-22.2,30.4-31.2,46.9c-3.9,7.3-7.8,14.6-10.3,22.4c-1.9,5.9-3.4,12-5,18
		c-3.2,12.3-5.8,24.6-7.1,37.2c-1.2,10.7-1.5,21.5-1.7,32.3c-0.2,10.4,1.1,20.6,2.5,30.9c1.1,8,2.3,16,3.6,24.1
		c1.3,8.2,2.6,16.4,5.1,24.4s4.6,16,6.3,24.1c2.1,10.2,3.6,20.5,4,30.9c0.3,6.3,0.4,12.7,0.5,19h-0.2c0,6.6,0,13.2,0,19.8
		c0,0.9,0,1.8,0.1,2.7c0.4,8.2,0.8,16.3,1.1,24.5c0.1,2.4,0.1,4.7,0.2,7.1c0.5,10.4,2,20.7,4,30.9c1.8,9.3,4,18.5,7.2,27.3
		c6.1,16.6,12.8,33,19.4,49.4c4.5,11.1,9.5,22,14.4,33c2.6,5.7,5.1,11.5,8.2,16.9c8.8,15.9,19.8,30.5,31.5,44.6
		c12.1,14.5,26.1,27.2,41.4,38.6c10.7,7.9,22.1,14.8,33.6,21.5c4.8,2.8,10,4.8,15.3,6.3c5.1,1.4,10.2,2.9,15.3,4.3
		c6.3,1.7,12.8,2.8,19.4,2.9c3.7,0.1,7.3,0.1,11,0c3.4,0,6.8-0.1,10.1-0.4c8.6-0.7,16.9-2.8,25.1-5c8.6-2.3,16.6-5.7,24.1-10.2
		c5-3,9.9-5.9,14.8-9c15.5-9.8,29.7-21.1,42.6-33.9c14.5-14.5,27.2-30.3,38.2-47.2c4.8-7.4,9.4-15,13-23
		c10.9-24,20.8-48.4,30.7-72.8c5.8-14.2,10.2-28.7,13.2-43.7c2.7-13.2,4.2-26.6,5-40.1c0.7-11.2,1.2-22.5,1.7-33.7
		c0.4-8.8,0.2-17.5-0.6-26.3c-0.7-8.2-0.5-16.3,0.8-24.4c1.5-9.7,3.9-19.2,6.7-28.7c3.4-11.2,6.2-22.5,7.8-34
		c1-7.7,2.3-15.4,3.5-23.1c1-6.7,1.9-13.3,1.9-20.1C559.7,267.5,559.8,252.4,557.6,237.3z"/>
</g>
<g class="st1">
	<g transform="translate(-36.098 -105.28)" class="st2">
		<path class="st3" d="M327.3,242.1c12.5-3.2,40.4,1.9,60.2,9.3c28.9,19.1,56.4,46.1,80.4,44c9.9-6.6,9.2-23.7,3.4-26.1
			c-4.2-1.6-8.8-0.8-13.1-1.2c4.5-5.8,8.3-11.1,25.6-6.5c9.1,4.9,15.9,18,20.2,32c0.1,7.9,3.4,15.2-4.4,24.4
			c-135.1,130.2-211.9,69-286.4,10.5c-4.8,2.5-5.3,3.4-9.1,4.2c1.2-3.7,0.9-7.5,5.4-10.8c-3.1-4.8-4.2-5-4-11.3
			c1.6,1.3,6.3,2.5,8.2,5.4C257.7,284.8,320.2,247.1,327.3,242.1L327.3,242.1z"/>
		<path class="st4" d="M298.1,283.4c-24.3,10.4-45,14.4-74.7,36.7c14.8,21,44.6,26.5,70,39.7C279.7,332.6,279.8,309.2,298.1,283.4
			L298.1,283.4z"/>
		<path class="st4" d="M348.1,336c-32.5-7.2-33.5-25.8-8-44.1c25.1-12.7,71.2,19.6,41.2,62c17.4-9.6,34.6-18.2,52.5-31.3
			c-27.4-29.6-82.6-49-96.3-41.4c-31.3,22.5-43.1,51.3-13.5,69c23,6.7,31-11.7,42.8-26.2C374.6,309.2,334.6,300.8,348.1,336
			L348.1,336z"/>
	</g>
</g>
<g class="st1">
	<g class="st2">
		<g>
			<g>
				<g>
					<path d="M457.8,207.3c0,0-0.2,0.2-0.6,0.7s-0.9,1.2-1.7,2.1s-1.7,2.1-2.8,3.4c-0.6,0.7-1.2,1.4-1.8,2.1
						c-0.7,0.7-1.4,1.5-2.1,2.4c-3,3.3-6.7,7.2-11.2,11.6c-2.2,2.2-4.7,4.4-7.3,6.7s-5.4,4.7-8.4,7.1c-6,4.9-12.7,9.8-20.1,14.6
						s-15.6,9.4-24.4,13.5c-8.8,4-18.3,7.5-28.3,10c-10,2.4-20.4,3.8-30.9,3.9c-10.5,0-20.9-1.4-30.9-3.8s-19.5-5.9-28.3-10
						c-8.8-4-17-8.7-24.4-13.5c-7.4-4.8-14.1-9.8-20.1-14.6c-3-2.4-5.8-4.8-8.4-7.1c-2.6-2.3-5-4.6-7.3-6.7
						c-4.5-4.3-8.2-8.2-11.2-11.6c-0.8-0.8-1.4-1.6-2.1-2.4c-0.6-0.8-1.3-1.4-1.8-2.1c-1.1-1.3-2.1-2.4-2.8-3.4
						c-0.8-0.9-1.3-1.6-1.7-2.1s-0.6-0.7-0.6-0.7s0.2,0.2,0.6,0.7c0.4,0.4,1.1,1.1,1.9,1.9s1.9,1.8,3.2,3s2.7,2.5,4.4,4
						c3.3,3,7.4,6.5,12.1,10.4c2.4,1.9,4.9,4,7.7,6.1c2.7,2.1,5.6,4.2,8.7,6.4c6.2,4.4,13,8.9,20.4,13.2c7.4,4.3,15.5,8.5,24.1,12.1
						s17.7,6.7,27.2,8.9c9.5,2.2,19.3,3.4,29.1,3.4c9.8,0,19.6-1.2,29.1-3.4c9.5-2.2,18.6-5.2,27.2-8.9c8.6-3.6,16.7-7.8,24.1-12.1
						c7.5-4.3,14.3-8.8,20.4-13.2c3.1-2.2,6-4.3,8.7-6.4c2.7-2.1,5.3-4.1,7.7-6.1c4.8-3.9,8.8-7.4,12.1-10.4c1.6-1.5,3.1-2.8,4.4-4
						c1.2-1.2,2.3-2.2,3.2-3c0.9-0.8,1.5-1.5,1.9-1.9C457.6,207.5,457.8,207.3,457.8,207.3z"/>
				</g>
				<g>
					<path d="M178.9,207.3c0,0,0.2-0.2,0.6-0.7c0.4-0.5,0.9-1.2,1.7-2.1s1.7-2.1,2.8-3.4c0.6-0.7,1.2-1.4,1.8-2.1
						c0.7-0.7,1.4-1.5,2.1-2.4c3-3.3,6.7-7.2,11.2-11.6c2.2-2.2,4.7-4.4,7.3-6.7s5.4-4.7,8.4-7.1c6-4.9,12.7-9.8,20.1-14.6
						c7.4-4.8,15.6-9.4,24.4-13.5c8.8-4.1,18.3-7.5,28.3-9.9s20.4-3.8,30.9-3.9c10.5,0,20.9,1.4,30.9,3.8c10,2.4,19.5,5.9,28.3,9.9
						c8.8,4.1,17,8.7,24.4,13.5s14.1,9.8,20.1,14.6c3,2.4,5.8,4.8,8.4,7.1s5,4.6,7.3,6.7c4.5,4.3,8.2,8.2,11.2,11.6
						c0.8,0.8,1.5,1.6,2.1,2.4c0.6,0.8,1.3,1.4,1.8,2.1c1.1,1.3,2.1,2.4,2.8,3.4c0.8,0.9,1.3,1.6,1.7,2.1s0.6,0.7,0.6,0.7
						s-0.2-0.2-0.6-0.7c-0.4-0.4-1.1-1.1-1.9-1.9s-1.9-1.8-3.2-3c-1.3-1.2-2.7-2.5-4.4-4c-3.3-3-7.4-6.5-12.1-10.4
						c-2.4-1.9-5-4-7.7-6.1s-5.6-4.2-8.7-6.4c-6.2-4.4-13-8.9-20.4-13.2s-15.5-8.5-24.1-12.1s-17.7-6.7-27.2-8.9s-19.3-3.4-29.1-3.4
						c-9.8,0-19.6,1.2-29.1,3.4s-18.6,5.2-27.2,8.9c-8.6,3.6-16.7,7.8-24.1,12.1s-14.3,8.8-20.4,13.2c-3.1,2.2-6,4.3-8.7,6.4
						c-2.7,2.1-5.3,4.1-7.7,6.1c-4.8,3.9-8.8,7.4-12.1,10.4c-1.6,1.5-3.1,2.8-4.4,4c-1.2,1.2-2.3,2.2-3.2,3s-1.5,1.5-1.9,1.9
						C179.1,207.1,178.9,207.3,178.9,207.3z"/>
				</g>
			</g>
			<circle class="st5" cx="318.4" cy="207.3" r="63.3"/>
			<circle class="st5" cx="318.4" cy="207.3" r="32.9"/>
			<polygon class="st6" points="341.1,155.8 340.2,173.4 355.9,165.4 349.6,181.9 367,179 356,192.8 373.4,195.5 358.6,205.1 
				374.4,213.1 357.3,217.6 369.9,230.1 352.2,229.2 360.3,244.9 343.8,238.6 346.6,256 332.9,244.9 330.2,262.4 320.6,247.6 
				312.6,263.3 308,246.3 295.6,258.8 296.5,241.2 280.8,249.2 287.1,232.8 269.6,235.6 280.7,221.9 263.3,219.1 278.1,209.5 
				262.3,201.6 279.4,197 266.9,184.5 284.5,185.4 276.4,169.7 292.9,176 290.1,158.6 303.8,169.7 306.5,152.2 316.1,167.1 
				324.1,151.3 328.7,168.3 			"/>
			<circle cx="318.4" cy="207.3" r="13.5"/>
		</g>
		<g>
			<g>
				<g>
					<g>
						<path class="st7" d="M184.3,145.8c10,2.5,20.7,5.6,30.5,9.2c-8.1,6.8-17.2,15.6-22.7,21.6C189.9,170.3,187,159.5,184.3,145.8z
							"/>
					</g>
					<g>
						<path class="st7" d="M217.1,118.8c10,4.2,19.1,8.4,28.7,13.8c-8.9,5.3-17.5,11.4-25.6,17.9
							C218.6,140.8,217.5,129.3,217.1,118.8z"/>
					</g>
					<g>
						<path class="st7" d="M254.3,97.5c10.2,6.6,17.9,12.6,25.3,19.3c-9.5,3.2-19.1,7.6-27.9,12.5
							C251.9,117.2,252.7,107.6,254.3,97.5z"/>
					</g>
					<g>
						<path class="st7" d="M296.1,84.7c8.1,8.8,13.5,16.1,19,25.4c-10.1,0.5-18.5,1.6-29.2,4.7C288.4,104.4,291.5,94.9,296.1,84.7z"
							/>
					</g>
					<g>
						<path class="st7" d="M340.6,84.7c4.6,10.2,7.8,19.7,10.2,30.1c-10.7-3.1-19.2-4.2-29.2-4.7C327,100.8,332.5,93.4,340.6,84.7z"
							/>
					</g>
					<g>
						<path class="st7" d="M382.4,97.5c1.6,10.1,2.5,19.7,2.6,31.7c-8.9-4.9-18.4-9.3-27.9-12.5C365.2,109.4,373,103.6,382.4,97.5z"
							/>
					</g>
					<g>
						<path class="st7" d="M419.6,118.8c-0.4,10.4-1.5,22-3,31.7c-8.1-6.5-16.7-12.6-25.6-17.9C400.6,127.3,409.6,123,419.6,118.8z"
							/>
					</g>
					<g>
						<path class="st7" d="M452.4,145.8c-2.7,13.8-5.7,24.6-7.8,30.8c-5.5-6.1-14.6-14.9-22.7-21.6
							C431.7,151.4,442.4,148.3,452.4,145.8z"/>
					</g>
				</g>
			</g>
		</g>
		<g>
			<g>
				<g>
					<g>
						<path class="st7" d="M184.3,269.2c10-2.5,20.7-5.6,30.5-9.2c-8.1-6.8-17.2-15.6-22.7-21.6C189.9,244.7,187,255.5,184.3,269.2z
							"/>
					</g>
					<g>
						<path class="st7" d="M217.1,296.1c10-4.2,19.1-8.4,28.7-13.8c-8.9-5.3-17.5-11.4-25.6-17.9
							C218.6,274.2,217.5,285.7,217.1,296.1z"/>
					</g>
					<g>
						<path class="st7" d="M254.3,317.5c10.2-6.6,17.9-12.5,25.3-19.3c-9.5-3.2-19.1-7.6-27.9-12.5
							C251.9,297.8,252.7,307.4,254.3,317.5z"/>
					</g>
					<g>
						<path class="st7" d="M296.1,330.3c8.1-8.8,13.5-16.1,19-25.5c-10.1-0.5-18.5-1.6-29.2-4.7
							C288.4,310.6,291.5,320.1,296.1,330.3z"/>
					</g>
					<g>
						<path class="st7" d="M340.6,330.3c4.6-10.2,7.8-19.7,10.2-30.1c-10.7,3.1-19.2,4.2-29.2,4.7
							C327,314.2,332.5,321.6,340.6,330.3z"/>
					</g>
					<g>
						<path class="st7" d="M382.4,317.5c1.6-10.1,2.5-19.7,2.6-31.7c-8.9,4.9-18.4,9.3-27.9,12.5C365.2,305.5,373,311.4,382.4,317.5
							z"/>
					</g>
					<g>
						<path class="st7" d="M419.6,296.1c-0.4-10.4-1.5-22-3-31.7c-8.1,6.5-16.7,12.6-25.6,17.9C400.6,287.7,409.6,292,419.6,296.1z"
							/>
					</g>
					<g>
						<path class="st7" d="M452.4,269.2c-2.7-13.8-5.7-24.6-7.8-30.8c-5.5,6.1-14.6,14.9-22.7,21.6
							C431.7,263.6,442.4,266.7,452.4,269.2z"/>
					</g>
				</g>
			</g>
		</g>
	</g>
</g>
<g class="st1">
	<g transform="translate(-74.489 36.103)" class="st2">
		
			<linearGradient id="SVGID_1_" gradientUnits="userSpaceOnUse" x1="-1006.9038" y1="853.8716" x2="-1000.42" y2="853.8716" gradientTransform="matrix(23.7515 0 0 -11.8311 24102.5762 10588.4902)">
			<stop  offset="0" style="stop-color:#FFFFFF;stop-opacity:0.5"/>
			<stop  offset="1" style="stop-color:#FFFFFF;stop-opacity:0"/>
		</linearGradient>
		<path class="st8" d="M341.1,459.7c0,29.3-34.5,53.1-77,53.1s-77-23.8-77-53.1c17.6,12.2,31,37.2,73.5,37.2S316.4,489,341.1,459.7z
			"/>
	</g>
	<g transform="translate(-34.261 34.832)" class="st2">
		
			<linearGradient id="SVGID_2_" gradientUnits="userSpaceOnUse" x1="-1118.2958" y1="855.5145" x2="-1111.8119" y2="855.5145" gradientTransform="matrix(23.7515 0 0 -11.8311 26969 10603.5273)">
			<stop  offset="0" style="stop-color:#FFFFFF;stop-opacity:0.5"/>
			<stop  offset="1" style="stop-color:#FFFFFF;stop-opacity:0"/>
		</linearGradient>
		<path class="st9" d="M561.8,455.3c0,29.3-34.5,53.1-77,53.1s-77-23.8-77-53.1c17.6,12.2,31,37.2,73.5,37.2
			S537.1,484.5,561.8,455.3z"/>
	</g>
</g>
<g class="st1">
	<g class="st2">
		<g>
			<g>
				<defs>
					<rect id="SVGID_3_" x="105.8" y="478.6" width="431.5" height="99.2"/>
				</defs>
				<clipPath id="SVGID_4_">
					<use xlink:href="#SVGID_3_"  style="overflow:visible;"/>
				</clipPath>
				<g class="st10">
					<g>
						<g>
							<defs>
								<rect id="SVGID_5_" x="105.8" y="478.6" width="431.5" height="99.2"/>
							</defs>
							<clipPath id="SVGID_6_">
								<use xlink:href="#SVGID_5_"  style="overflow:visible;"/>
							</clipPath>
							<path class="st11" d="M537.3,513c-0.1,0.1-0.3,0.1-0.4,0.2c-5.5,5.5-12.2,8.8-19.6,10.8c-4.9,1.2-9.8,1.9-14.8,2.2
								c-1.4,0.1-2.8,0.2-4.5,0.3c0.4,0.2,0.6,0.4,0.8,0.5c3.6,1.1,7.3,1.8,11,2.1c7.7,0.7,15.2-0.1,22.8-1.6c0.1,0,0.2,0,0.5,0
								c-0.2,0.2-0.3,0.4-0.4,0.5c-1.7,1.3-3.5,2.5-5.5,3.3c-6.1,2.4-12.4,3.5-18.9,3.6c-4.9,0.1-9.8-0.2-14.7-0.8
								c-0.3,0-0.5,0-0.9,0.1c0.2,0.1,0.4,0.3,0.6,0.4c4.2,2.1,8.7,3.5,13.3,4.3c5,0.9,10.2,1.3,15.3,1.3c0.5,0,1,0,1.4,0
								c0.1,0,0.1,0.1,0.3,0.2c-0.3,0.2-0.6,0.3-0.9,0.5c-6.3,3.1-13,4-19.9,2.7c-6-1.2-12.1-2.4-18.1-3.6c-0.4-0.1-0.7-0.1-1.1-0.1
								c4.1,3.2,8.7,5.5,13.6,7.3c4.8,1.8,9.8,3,15,4.2c-0.2,0.1-0.4,0.2-0.6,0.3c-4.2,0.8-8.4,1-12.6,0.6c-7-0.8-13.6-3.2-19.8-6.4
								c-3-1.6-6-3.2-9.1-4.9c0.1,0.2,0.2,0.4,0.3,0.5c3.5,3.3,7,6.7,11,9.5c2.3,1.6,4.8,2.9,7.3,4.1c3,1.4,6.1,2.8,9.2,4.2
								c0.4,0.2,0.7,0.4,1.1,0.6c0,0.1,0,0.2-0.1,0.2c-0.4,0-0.8,0.1-1.1,0.1c-6.6,0-12.9-1.3-18.8-4c-5.5-2.5-10.4-6-15.1-9.7
								c-0.3-0.2-0.6-0.5-1-0.8c0.4,1.5,3.1,4.9,6.4,8.2c2.5,2.5,5.1,4.7,8.1,6.5s6,3.6,9.2,5.4c-0.3,0-0.6,0.1-0.8,0.1
								c-3-0.2-5.9-0.7-8.8-1.6c-5.8-1.8-10.8-4.8-15.4-8.6c-2.9-2.4-5.5-5.1-8-7.9c-0.4-0.4-0.8-0.9-1.3-1.2
								c1.2,4.8,3.4,9.2,6.2,13.2c2.8,4,6.3,7.4,9.8,10.8c0,0.1-0.1,0.1-0.1,0.2c-0.4-0.1-0.8-0.2-1.1-0.3c-5.5-1.7-10-4.8-13.8-9
								c-3.3-3.6-6-7.7-8.5-11.8c-0.2-0.4-0.5-0.7-0.7-1c-0.1,0-0.2,0-0.3,0.1c0,0.4,0,0.8,0,1.2c0.1,4.3,1.1,8.5,2.9,12.4
								c1.9,4.3,4.5,8.1,7.4,11.7c0.2,0.2,0.3,0.4,0.6,0.8c-0.4,0-0.6,0-0.7-0.1c-4-1.7-7.3-4.2-10-7.6c-3.6-4.4-5.9-9.5-7.9-14.7
								c-0.2-0.5-0.3-0.9-0.5-1.3c0-0.1-0.1-0.1-0.3-0.2c-0.1,0.3-0.1,0.5-0.2,0.8c-0.8,6.2,0.5,12.2,3,17.8c1,2.3,2.4,4.5,3.5,6.8
								c0.2,0.3,0.3,0.7,0.6,1.2c-0.4-0.2-0.6-0.2-0.8-0.3c-3.2-1.9-5.8-4.5-8-7.5c-2.8-3.9-4.3-8.3-5.6-12.9
								c-0.2-0.7-0.4-1.3-0.6-2c-0.1,0-0.2,0-0.3,0c-0.1,0.5-0.2,1-0.2,1.4c-0.1,2.3,0.2,4.5,0.5,6.8c0.6,4.6,1.9,9,2.9,13.5
								c0.1,0.4,0.1,0.8,0.2,1.2c-0.1,0-0.2,0.1-0.2,0.1c-0.3-0.3-0.7-0.5-1-0.8c-3.2-3.1-5.2-6.8-6.6-11c-1.1-3.3-1.8-6.8-2.4-10.3
								c0-0.2-0.1-0.5-0.2-0.7c0-0.1-0.1-0.1-0.3-0.3c-0.2,0.5-0.4,0.9-0.5,1.3c-1.3,4.2-1.6,8.5-0.9,12.9c0.4,2.4,0.9,4.7,1.3,7.1
								c0.1,0.3,0.1,0.6,0.1,0.9c-0.1,0-0.3,0-0.3,0c-2.8-2.6-4.9-5.5-5.6-9.4c-0.7-3.8-1.2-7.7-1.6-11.5c0-0.2,0-0.5-0.1-0.9
								c-0.3,0.4-0.5,0.6-0.6,0.8c-1.5,2.5-2.3,5.3-2.6,8.2c-0.3,2.6-0.3,5.3-0.5,7.9c0,0.5,0,0.9,0,1.4c-0.1,0-0.1,0-0.2,0.1
								c-0.2-0.2-0.4-0.4-0.5-0.7c-1.8-3.1-2.5-6.5-2.6-10c0-1.9,0.1-3.8,0.2-5.8c0-0.6,0.1-1.2-0.5-1.8c-1.2,2.8-1.8,5.5-2.7,8.3
								c-0.8,2.7-1.7,5.5-2.5,8.2c-0.1,0-0.2,0-0.3,0c-0.2-0.4-0.3-0.8-0.5-1.3c-0.8-2.7-0.9-5.3-0.5-8.1c0.4-1.9,0.7-3.8,1.1-5.8
								c0.1-0.4,0.1-0.8,0.2-1.3c-0.1,0-0.1-0.1-0.2-0.1c-0.3,0.3-0.6,0.6-0.9,0.9c-2.3,2.3-4.6,4.7-6.9,7c-0.9,0.9-2,1.6-3.1,2.3
								c0.2-1.1,0.8-2.1,1.2-3.1c0.5-1,1-2.1,1.5-3.1s1-2,1.5-3s1-2,1.4-3c-3.3,3-7,5.3-11.1,7c-1,0.4-2,0.6-3.1,0.8
								c0.2-0.2,0.3-0.5,0.5-0.7c1.4-1.4,2.8-2.7,4.2-4.2c1.6-1.7,2.9-3.6,3.9-5.8c-4.9,2.8-9.9,4.9-15.7,4.8
								c2.6-1.2,4.9-2.7,6.8-4.8c0.4-0.4,0.8-0.8,1.2-1.3c0-0.1-0.1-0.2-0.1-0.2c-0.4,0.1-0.9,0.3-1.3,0.4c-1.5,0.4-2.9,0.9-4.4,1.2
								c-3.1,0.6-6-0.1-8.9-1.2c-0.1,0-0.1-0.1-0.3-0.3c3.8-0.7,7.4-1.9,10.8-3.7c-5,0.5-9.5-0.2-13.2-4.1c1.8,0.1,3.5,0.2,5.3,0.3
								s3.6,0,5.3-0.9c-0.4-0.2-0.8-0.4-1.2-0.5c-3.1-1.3-6.3-2.5-9.4-3.8c-1.3-0.6-2.5-1.4-3.8-2.1c-0.2-0.2-0.5-0.4-0.6-0.8
								c1.1,0.2,2.3,0.3,3.4,0.5c8,1.2,15.9,2.4,23.8,3.5c4,0.6,7.9,1.2,11.9,1.5c8.6,0.8,17.2,0.6,25.8-0.8
								c10-1.6,19.4-4.9,28.4-9.5c7-3.6,14.1-7.2,21.1-10.9c5.1-2.7,10.4-3.4,15.9-2.1c5.6,1.3,11.3,1.8,17,2.5c5,0.5,10,0,14.9-1.2
								c5.4-1.4,10.7-3,16-4.5L537.3,513L537.3,513z"/>
						</g>
					</g>
					<g>
						<g>
							<defs>
								<rect id="SVGID_7_" x="105.8" y="478.6" width="431.5" height="99.2"/>
							</defs>
							<clipPath id="SVGID_8_">
								<use xlink:href="#SVGID_7_"  style="overflow:visible;"/>
							</clipPath>
							<path class="st12" d="M172.8,540.8c-0.6,0.4-1.2,0.7-1.8,1.1c-4.2,2.5-8.6,4.8-13.1,6.7c-5.8,2.4-11.9,3.9-18.2,3.9
								c-2.5,0-5-0.4-7.5-0.6c-0.4,0-0.9-0.2-1.4-0.3c0-0.1,0-0.2,0-0.2c0.3-0.1,0.6-0.2,0.9-0.3c5.5-1,10.9-2.5,16.1-4.6
								c3.9-1.6,7.5-3.5,11-5.9c0.2-0.1,0.4-0.3,0.5-0.7c-0.4,0-0.7,0.1-1.1,0.2c-5.1,1-10.1,2.2-15.2,3.1c-2.8,0.5-5.7,0.9-8.6,1
								c-5.2,0.2-10.1-1.1-14.7-3.4c-0.2-0.1-0.3-0.2-0.7-0.5c0.5-0.1,0.8-0.1,1.1-0.1c3.8,0.1,7.5-0.1,11.3-0.5
								c6.2-0.7,12.1-2.2,17.7-4.9c0.3-0.1,0.6-0.3,0.9-0.4c0.1,0,0.1-0.1,0.1-0.3c-0.3,0-0.6,0-0.9,0c-5.4,0.7-10.9,1-16.4,0.8
								c-6-0.3-11.7-1.4-17.3-3.6c-1.9-0.8-3.7-1.9-5.3-3.2c-0.1-0.1-0.2-0.2-0.2-0.2c0-0.1,0-0.2-0.1-0.3
								c10.6,2.1,21.2,2.9,31.8,0.2c1-0.2,2.1-0.4,3-1.1c-1.4-0.1-2.8-0.2-4.2-0.3c-6.3-0.4-12.6-1.3-18.6-3.3
								c-5.9-2-11.2-5.1-15.7-9.5c-0.2-0.2-0.3-0.3-0.3-0.7c0.4,0.1,0.9,0.2,1.3,0.3c4.5,1.2,9,2.6,13.5,3.8
								c6.2,1.6,12.4,2.1,18.8,1.2c3.3-0.5,6.6-0.8,9.9-1.3c1.7-0.2,3.4-0.7,5.2-1c3.6-0.6,7.1-0.6,10.6,0.5c1.5,0.5,3,1.2,4.4,1.9
								c7.1,3.6,14.1,7.3,21.1,10.8c7.9,4,16.1,7.1,24.8,8.8c8.6,1.7,17.4,2.1,26.1,1.7c5.9-0.3,11.8-1.2,17.6-2.1
								c6.7-1,13.4-2,20.2-3c1.5-0.2,3.1-0.5,4.7-0.5c-0.2,0.2-0.5,0.4-0.7,0.6c-2.5,1.6-5.2,2.9-8,4c-1.7,0.7-3.5,1.3-5.2,1.9
								c-0.4,0.2-0.8,0.3-1.2,0.6c3.5,1.3,7,0.6,10.6,0.5c-0.8,1.4-3.8,3.2-6,3.7c-2.4,0.5-4.8,0.6-7.2,0.4c1,0.8,2.2,1.2,3.4,1.6
								c1.2,0.5,2.4,0.9,3.6,1.2s2.5,0.6,3.9,1c-0.4,0.2-0.6,0.4-0.9,0.5c-3.9,1.5-7.8,1.6-11.7,0.2c-0.8-0.3-1.6-0.5-2.4-0.7
								c2.1,2.7,4.7,4.8,7.9,6.2c-0.2,0-0.5,0.1-0.7,0.1c-5.1-0.2-9.8-2-14.1-4.6c-0.3-0.2-0.5-0.3-1-0.5c2,4.5,5.6,7.5,8.7,10.8
								c-5.5-1.3-10-4.2-14.2-7.8c2,4,3.9,8,5.9,11.9c-0.1,0-0.1,0.1-0.2,0.2c-0.2-0.1-0.5-0.1-0.7-0.3c-1.1-0.8-2.2-1.6-3.1-2.6
								c-2.1-2-4-4.1-6-6.2c-0.3-0.3-0.6-0.7-1-1c-0.1,0-0.2,0.1-0.2,0.1c0.1,0.4,0.1,0.8,0.1,1.2c0.4,2.3,0.9,4.6,1.2,7
								c0.4,2.6,0,5.2-0.8,7.7c-0.1,0.2-0.2,0.3-0.4,0.8c-0.2-0.7-0.4-1.1-0.6-1.6c-1.2-4-2.4-8-3.6-12c-0.3-1-0.7-1.9-1-3
								c-0.6,0.5-0.6,0.9-0.6,1.4c0,0.8,0.1,1.6,0.1,2.4c0.2,3.5,0.2,6.9-0.9,10.2c-0.5,1.5-1.1,2.9-2,4.2c-0.4-0.4-0.3-0.9-0.3-1.3
								c-0.1-2.2-0.1-4.5-0.3-6.7c-0.3-3.2-1-6.4-2.6-9.3c-0.2-0.3-0.3-0.5-0.5-0.8c0,0-0.1,0-0.3-0.1c-0.1,1-0.2,2-0.3,3
								c-0.4,3-0.8,6-1.3,9c-0.6,4-2.8,7-6,9.5c0.1-0.4,0.2-0.9,0.3-1.3c0.8-3.3,1.4-6.7,1.5-10c0.2-3.3-0.3-6.5-1.3-9.7
								c-0.1-0.4-0.3-0.7-0.4-1.1c-0.1,0-0.2,0-0.3,0c-0.2,0.9-0.3,1.8-0.5,2.6c-0.8,4.2-1.7,8.5-3.6,12.4c-1.2,2.6-2.9,5-4.9,7
								c-0.3,0.3-0.7,0.6-1,0.9c-0.1,0-0.2-0.1-0.2-0.1c0-0.3,0.1-0.7,0.1-1c0.8-3.5,1.7-6.9,2.4-10.4c0.7-3.4,1.3-6.8,1.1-10.2
								c0-0.5-0.1-1-0.2-1.4c-0.1,0-0.2,0-0.3,0c-0.1,0.5-0.3,1-0.4,1.6c-0.8,3-1.8,6.1-3.2,8.9c-2.3,4.8-5.5,8.8-10,11.7
								c-0.3,0.2-0.7,0.4-1.1,0.7c-0.1-0.6,0.3-0.9,0.5-1.3c1.2-2.3,2.6-4.6,3.6-7c2.3-5.2,3.5-10.5,3-16.2
								c-0.1-0.7-0.1-1.4-0.5-2.2c-0.2,0.4-0.3,0.8-0.5,1.1c-1.4,3.8-3,7.4-5.1,10.8c-2.5,4.1-5.6,7.7-9.8,10.2
								c-1.2,0.7-2.5,1.3-3.7,1.9c-0.1-0.1-0.1-0.1-0.2-0.2c0.1-0.2,0.2-0.4,0.4-0.6c3.4-4.2,6.4-8.7,8.3-13.8
								c1.3-3.6,2.1-7.3,2.1-11.1c0-0.2,0-0.3-0.1-0.5c0,0-0.1,0-0.2-0.2c-0.2,0.3-0.4,0.7-0.7,1c-1.6,2.4-3.1,4.8-4.7,7.1
								c-1.9,2.7-4.1,5.1-6.5,7.3c-3.4,3.1-7.4,5.3-11.8,6.6c-0.1,0-0.3,0-0.6-0.1c0.3-0.3,0.5-0.5,0.8-0.8c3-2.9,6-5.9,8.5-9.3
								c2.9-4,5.2-8.4,6.7-13.2c0.1-0.2,0.1-0.4,0.1-0.6c0,0,0-0.1-0.1-0.3c-0.4,0.4-0.7,0.8-1,1.2c-3,3.4-6.2,6.6-9.7,9.4
								c-3.1,2.5-6.4,4.5-10,6c-4,1.7-8.2,2.7-12.5,3c-0.2,0-0.3,0-0.5,0c-0.1,0-0.1-0.1-0.4-0.2c0.5-0.3,0.9-0.5,1.4-0.7
								c4.3-2.1,8.4-4.6,12.1-7.6c3.8-3.1,7.2-6.6,9.9-10.7c0.1-0.2,0.3-0.4,0.4-0.6c0-0.1,0-0.1,0.1-0.4c-0.4,0.2-0.6,0.4-0.9,0.6
								c-4.8,3.8-9.8,7.3-15.4,9.8c-6,2.8-12.4,4-19,4c-0.3,0-0.6,0-0.9-0.1c0.1-0.5,0.5-0.6,0.9-0.7c2.6-1.2,5.1-2.3,7.6-3.4
								c6.2-2.7,11.7-6.4,16.5-11.1c1.2-1.2,2.5-2.4,3.7-3.5L172.8,540.8z"/>
						</g>
					</g>
					<g>
						<g>
							<defs>
								<rect id="SVGID_9_" x="105.8" y="478.6" width="431.5" height="99.2"/>
							</defs>
							<clipPath id="SVGID_10_">
								<use xlink:href="#SVGID_9_"  style="overflow:visible;"/>
							</clipPath>
							<path class="st13" d="M484.7,495c-0.4-0.1-0.7-0.2-1.1-0.4c-9.6-3.6-19.5-6-29.6-7.7c-10-1.6-20-2.3-30.1-1.9
								c-6.3,0.2-12.6,0.9-18.8,2.3c-4.5,1.1-8.9,2.7-13,4.7c-11.4,5.6-20.9,13.7-28.9,23.5c-1.4,1.7-2.7,3.6-4,5.3
								c-0.2,0.3-0.4,0.6-0.8,0.8c0.1-0.3,0.1-0.6,0.2-0.8c3.7-9.4,9.3-17.5,16.8-24.3c9.2-8.4,20.1-13.5,32.3-15.9
								c4.6-0.9,9.2-1.4,13.9-1.8c3.7-0.3,7.4-0.2,11.1-0.1c2.7,0,5.4,0.4,8.1,0.8c5.1,0.6,10.1,1.5,15.1,2.8
								c9.9,2.6,19.2,6.4,28,11.8c0.3,0.2,0.6,0.4,0.9,0.7C484.8,494.8,484.8,494.9,484.7,495"/>
						</g>
					</g>
					<g>
						<g>
							<defs>
								<rect id="SVGID_11_" x="105.8" y="478.6" width="431.5" height="99.2"/>
							</defs>
							<clipPath id="SVGID_12_">
								<use xlink:href="#SVGID_11_"  style="overflow:visible;"/>
							</clipPath>
							<path class="st14" d="M158.4,494.8c0.3-0.3,0.7-0.6,1-0.9c7.8-4.8,16.1-8.3,24.9-10.8c6.9-2,13.9-3.2,21.1-3.9
								c4.7-0.5,9.3-0.5,14-0.4c3,0.1,6,0.5,8.9,0.8c5.4,0.6,10.6,1.7,15.8,3.4c7.7,2.5,14.7,6.3,20.9,11.4
								c8.1,6.6,14.3,14.8,18.5,24.4c0.4,0.9,0.7,1.8,1,2.7c0,0,0,0.1-0.1,0.3c-0.2-0.3-0.5-0.6-0.7-0.9c-6.3-9-13.9-16.7-22.9-23
								c-7.1-5-14.8-8.7-23.3-10.6c-4.9-1.1-9.8-1.7-14.8-2c-6.5-0.4-12.9-0.5-19.4,0c-8.6,0.6-17.2,1.9-25.6,3.9
								c-6.2,1.5-12.4,3.2-18.4,5.5C159.1,494.7,158.7,494.7,158.4,494.8L158.4,494.8z"/>
						</g>
					</g>
					<g>
						<g>
							<defs>
								<rect id="SVGID_13_" x="105.8" y="478.6" width="431.5" height="99.2"/>
							</defs>
							<clipPath id="SVGID_14_">
								<use xlink:href="#SVGID_13_"  style="overflow:visible;"/>
							</clipPath>
							<path class="st15" d="M158.4,494.8c0,0.1-0.1,0.1-0.1,0.2l-0.1-0.1C158.3,494.8,158.3,494.8,158.4,494.8L158.4,494.8"/>
						</g>
					</g>
				</g>
			</g>
		</g>
	</g>
</g>
<path class="st16" d="M322.3,478.7c4-0.2,7.9-0.4,12.9-2.9c4.9-2.5,10.9-7.4,15.4-11.2s7.3-6.6,11.3-7.9s9.2-1.3,12.2-4.1
	c3.1-2.8,4.1-8.5,5.3-14.1c0,5.4,0,10.9-1.6,14.8s-4.8,6.2-7.8,7.5c-3.1,1.2-5.9,1.5-10,4.5c-4.1,3.2-9.6,9.2-15.1,12.8
	c-5.5,3.6-11,4.7-14.8,5.4c-3.7,0.6-5.7,0.6-6.7,0.6s-1,0-1,0s0,0-1,0s-3,0-6.7-0.6s-9.2-1.8-14.8-5.4c-5.5-3.6-11-9.6-15.1-12.8
	c-4.1-3.1-7-3.3-10-4.5c-3-1.3-6.2-3.6-7.8-7.5s-1.6-9.3-1.6-14.8c1.1,5.6,2.2,11.3,5.3,14.1s8.3,2.8,12.2,4.1
	c4,1.4,6.8,4.1,11.3,7.9s10.5,8.7,15.4,11.2C314.4,478.3,318.3,478.5,322.3,478.7z"/>
<g class="st1">
	<g class="st2">
		<path class="st17" d="M377.6,515.1c1.1-1.4,7.2-5.4,13.8-7.1c6.5-1.6,13.4-1,22.6,0.6s20.8,3.9,36.2,4.2
			c15.4,0.2,34.5-1.7,47.2-4.3c12.8-2.7,19.2-6.3,25.6-9.8c-4.7,4.2-9.5,8.4-18.1,13c-8.6,4.5-21.1,9.2-35.1,11.6
			c-14,2.4-29.4,2.4-41.7,0.4c-12.5-2-21.9-6-28.6-8c-6.8-1.8-10.8-1.6-14.8-1C380.6,515.3,376.6,516.5,377.6,515.1z"/>
		<path class="st17" d="M259.1,515.1c-1.1-1.4-7.2-5.4-13.8-7.1c-6.5-1.6-13.4-1-22.6,0.6c-9.2,1.6-20.8,3.9-36.2,4.2
			c-15.4,0.2-34.5-1.7-47.2-4.3c-12.8-2.7-19.2-6.3-25.6-9.8c4.7,4.2,9.5,8.4,18.1,13c8.6,4.5,21.1,9.2,35.1,11.6
			c14,2.4,29.4,2.4,41.7,0.4c12.5-2,21.9-6,28.6-8c6.8-1.8,10.8-1.6,14.8-1C256.1,515.3,260.1,516.5,259.1,515.1z"/>
	</g>
</g>
<g>
	<g>
		<g>
			<path d="M256.3,160.2c-12.6-12.6-25.1-25.1-37.7-37.7c-5.5-5.5-14,3-8.5,8.5c12.6,12.6,25.1,25.1,37.7,37.7
				C253.3,174.2,261.8,165.7,256.3,160.2L256.3,160.2z"/>
		</g>
	</g>
	<g>
		<g>
			<path d="M330.8,153.4c0-17.8,0-35.6,0-53.3c0-7.7-12-7.7-12,0c0,17.8,0,35.6,0,53.3C318.8,161.2,330.8,161.2,330.8,153.4
				L330.8,153.4z"/>
		</g>
	</g>
	<g>
		<g>
			<path d="M401.8,168.7c12.6-12.6,25.1-25.1,37.7-37.7c5.5-5.5-3-14-8.5-8.5c-12.6,12.6-25.1,25.1-37.7,37.7
				C387.8,165.7,396.3,174.2,401.8,168.7L401.8,168.7z"/>
		</g>
	</g>
</g>
<g>
	<path class="st18" d="M427.7,236.6c-1,1.1-1.7,2.2-2.6,3c-23.5,21.8-50.6,36.1-82.5,41.2c-19.3,3.1-37.8-0.4-55.7-7.3
		c-22.2-8.5-41.2-21.8-57.5-38.9c-2.3-2.5-4.6-5.1-7.3-8c0.9-1.1,1.4-1.8,2-2.4c20.9-19.5,44.9-33.2,72.8-39.9
		c24.7-5.9,48.3-2.4,71.3,7.5c20.4,8.8,38,21.6,53.1,37.8C423.4,231.8,425.4,234.1,427.7,236.6z"/>
</g>
<g>
	<path class="st19" d="M221.9,226.6c0.9-1.1,1.4-1.8,2-2.4c20.9-19.5,44.9-33.2,72.8-39.9c24.7-5.9,48.3-2.4,71.3,7.5
		c20.4,8.8,38,21.6,53.1,37.8c2.1,2.2,4.1,4.5,6.4,7c-1,1.1-1.7,2.2-2.6,3c-23.5,21.8-50.6,36.1-82.5,41.2
		c-19.3,3.1-37.8-0.4-55.7-7.3c-22.2-8.5-41.2-21.8-57.5-38.9C226.9,232.1,224.6,229.5,221.9,226.6 M233.2,236.3
		c1,1,1.6,1.8,2.4,2.5c15,12.6,31.5,22.5,50.1,28.9c20.7,7.1,41.6,8.3,62.8,2.3c25.8-7.3,47.4-21.5,65.8-40.7
		c0.7-0.7,1.2-1.6,1.9-2.5c-0.8-0.9-1.4-1.7-2.2-2.3c-14.3-12-30-21.7-47.6-28c-18.9-6.8-38.2-9.1-58.1-4.9
		c-19.8,4.2-37.4,12.9-53.5,24.9C247.1,222.3,240,228.7,233.2,236.3"/>
	<path d="M292.4,229.5c6.6,9.6,12.9,12.6,20.6,9.4c6.6-2.7,10.6-10.4,8.9-17.6c-1-4.6-3.5-8.2-7.8-10.6c-4.1-2.3-8.4-1.4-13.1-1.5
		c1.1-1.1,2-2.3,3.2-3.3c11.8-10.2,29-10.2,41-0.1c15.4,13,16.6,37,2.6,51.6c-13.3,13.8-34.7,13.3-47.3-1.2
		c-5.7-6.6-8.3-14.3-8.7-22.9C291.9,232,292.2,230.7,292.4,229.5"/>
</g>
<g>
	<polygon points="144.6,374 168,355.8 270.8,354 290.2,381.8 	"/>
	<polygon points="346.5,381.8 372.1,354 461.8,356.5 492.1,371.4 	"/>
</g>
<path class="st20" d="M97.8,413.3c0,0-26.3,136.6-14.8,166.8c0,0-27.8,61.2-27.8,115.3l34.4-17.7c0,0,3.3,124.2,47.7,127.8V761
	c0,0,44.4,115.3,90.4,108.2v-40.8c0,0,50.9,81.6,90.4,74.5c0,0,46,10.7,98.6-69.2v33.7c0,0,72.3-31.9,85.4-113.6v46.1
	c0,0,57.5-5.3,44.4-124.2l31.2,26.8c0,0-9.9-241.5-36.1-289.4L475.9,587c0,0-47.5-86.9-159.3-85.2c0,0-118.4,7.1-146.3,81.6
	C170.1,583.6,97.8,429.2,97.8,413.3"/>
<path class="st21" d="M248.7,608.7c0,0-21.6-52.9,14.4-65.4l63.4-21.8c0,0,76.4,15.6,80.7,43.6c0,0-1.1,51.4-12.8,43.6l-69.7-20.2
	L248.7,608.7z"/>
<path d="M390.8,568.4c-1.5-0.9-3.3-1.4-5-1.7c-4.5-2-9.2-3.3-13.8-4.9c-2-0.6-3.8-1.6-5.9-1.6l-0.1-0.4c-0.2,0-0.6,0-0.8,0
	c-0.4-0.5-1-0.5-1.6-0.7c-4.8-1.5-9.6-3-14.4-4.4c-0.8-0.2-1.7-0.4-2.5-0.2c-0.2-0.7-0.6-0.8-1.2-0.3c-1-0.8-2.4-0.5-3.4,0
	c-3.5,1.4-6.9,3-10.2,4.7c-0.5,0.2-1,0.5-1.3,1c-0.5-0.4-1.8,0.2-1.6,0.9c-1.6,0.3-2.7,1.8-4.2,2.4c-1.2-0.2-2-1.3-3.2-1.5v-0.4
	l-0.4-0.3l-0.4,0.2c-1.5-1.5-3.5-2.6-5.4-3.5v-0.4L315,557l-0.4,0.2c-0.6-0.9-1.7-1.3-2.5-1.9c-1.6-0.9-2.8-2.3-4.5-2.9
	c-2.4-0.2-4.6,0.9-6.9,1.4c-4.8,1.4-9.8,2.4-14.4,4.3c-2.1,0.5-4.2,1-6,2.1l-0.3,0.1l-0.3-0.2l-0.4,0.2l-0.1,0.4
	c-1.3,0-2.6,0.7-3.8,1c-0.9,0.4-2,0.6-2.8,1.2l-0.4-0.2l-0.4,0.2v0.4h-0.3c-1.7,0.2-3.3,0.8-4.7,1.7c-1.9,0.3-3.7,1.2-5.5,1.8
	c-4.4,1.6-8.7,3.4-13,5.1c-0.1,0.3-0.1,0.7,0,1c1.9,0.5,3.6,1.5,5.6,1.6l0.1,0.4c0.2,0,0.6,0,0.8,0h0.4l0.1,0.4l0.4,0.2l0.3-0.2
	c0.5,0.5,1.3,0.6,2,0.8c5.6,1.6,11.5,3,17.3,2.7c1-0.1,2.2,0.1,3.1-0.5c0.5,0.3,2,0.4,2-0.4c1.2,0.2,2.4-0.2,3.5-0.5
	c4.1-1.2,8.3-2.5,12.5-3.5c3.7-0.6,7.3,1.2,11,0.9c0.1,0.7,1.5,0.7,2.1,0.4c2.1,0.9,4.4,0.9,6.6,1.3c3.8,0.4,7.6,2,11.4,1
	c7.6-1.3,15.1-2.5,22.7-3.7c2.8-0.5,5.5,0.8,8.1,1.4c5.3,1.5,10.6,3.4,16.2,3.5c2.9-0.1,5.7-1,8.6-1.4c1.5-0.4,3.2-0.4,4.6-1.2
	c0.4,0.5,1.6,0.3,1.6-0.4c2.4,0.1,4.7-0.9,7-1.4c1.7-0.6,3.8-0.7,5.2-1.9c-1.2-1-2.7-1.3-4.1-1.8
	C395.2,569.9,393.1,568.9,390.8,568.4L390.8,568.4z"/>
</svg>
